<svg width="173" height="29" viewBox="0 0 173 29" fill="none" xmlns="http://www.w3.org/2000/svg">
<path d="M48.9443 8.94995C49.6578 9.63887 50.0146 10.5185 50.0146 11.5888C50.0146 12.6591 49.6578 13.5448 48.9443 14.2461C48.2431 14.935 47.2097 15.2794 45.8441 15.2794H41.9689V20.1511H39.9391V7.89811H45.8441C47.2097 7.89811 48.2431 8.24872 48.9443 8.94995ZM47.3942 12.9543C47.7879 12.6345 47.9847 12.1793 47.9847 11.5888C47.9847 10.9983 47.7879 10.5492 47.3942 10.2417C47.0128 9.92183 46.4715 9.7619 45.7703 9.7619H41.9689V13.4157H45.7703C46.4715 13.4157 47.0128 13.2619 47.3942 12.9543ZM51.6057 11.5334H53.5618V12.5853C53.7832 12.2531 54.1215 11.9824 54.5767 11.7733C55.0442 11.5642 55.5855 11.4596 56.2006 11.4596H56.9941V13.3234H56.2006C55.3641 13.3234 54.7121 13.5633 54.2446 14.0431C53.7894 14.5229 53.5618 15.1687 53.5618 15.9807V20.1511H51.6057V11.5334ZM62.4511 11.2935C63.7551 11.2935 64.8439 11.7303 65.7174 12.6037C66.6031 13.4649 67.046 14.5475 67.046 15.8515C67.046 17.1432 66.6031 18.2258 65.7174 19.0993C64.8439 19.9604 63.7551 20.391 62.4511 20.391C61.1348 20.391 60.0337 19.9604 59.148 19.0993C58.2745 18.2381 57.8378 17.1555 57.8378 15.8515C57.8378 14.5475 58.2745 13.4649 59.148 12.6037C60.0337 11.7303 61.1348 11.2935 62.4511 11.2935ZM62.4511 18.5826C63.2262 18.5826 63.8597 18.3242 64.3518 17.8075C64.8439 17.2909 65.0899 16.6388 65.0899 15.8515C65.0899 15.0519 64.8439 14.3937 64.3518 13.877C63.8597 13.3603 63.2262 13.1019 62.4511 13.1019C61.6884 13.1019 61.0548 13.3664 60.5504 13.8954C60.046 14.4121 59.7938 15.0642 59.7938 15.8515C59.7938 16.6265 60.046 17.2786 60.5504 17.8075C61.0548 18.3242 61.6884 18.5826 62.4511 18.5826ZM75.493 11.5334H77.4491V19.7082C77.4491 21.0738 77.0492 22.1564 76.2496 22.956C75.4623 23.7557 74.3612 24.1555 72.9464 24.1555C71.9377 24.1555 71.0335 23.891 70.2338 23.362C69.4342 22.833 68.8744 22.1072 68.5546 21.1845H70.6951C71.0888 21.9595 71.8392 22.3471 72.9464 22.3471C73.7338 22.3471 74.3551 22.1072 74.8102 21.6274C75.2654 21.1599 75.493 20.5325 75.493 19.7451V19.3576C74.841 20.0466 73.9368 20.391 72.7804 20.391C71.4394 20.391 70.3691 19.9481 69.5695 19.0624C68.7821 18.1643 68.3885 17.0879 68.3885 15.833C68.3885 14.5905 68.7821 13.5264 69.5695 12.6406C70.3691 11.7426 71.4394 11.2935 72.7804 11.2935C73.9368 11.2935 74.841 11.638 75.493 12.3269V11.5334ZM74.7733 17.8629C75.3023 17.3831 75.5668 16.7065 75.5668 15.833C75.5668 14.9596 75.3023 14.2891 74.7733 13.8216C74.2566 13.3418 73.6354 13.1019 72.9095 13.1019C72.1591 13.1019 71.544 13.3726 71.0642 13.9139C70.5844 14.4429 70.3445 15.0826 70.3445 15.833C70.3445 16.5958 70.5844 17.2478 71.0642 17.7891C71.544 18.3181 72.1591 18.5826 72.9095 18.5826C73.6354 18.5826 74.2566 18.3427 74.7733 17.8629ZM79.8905 11.5334H81.8466V12.5853C82.068 12.2531 82.4063 11.9824 82.8615 11.7733C83.329 11.5642 83.8703 11.4596 84.4854 11.4596H85.2789V13.3234H84.4854C83.6488 13.3234 82.9968 13.5633 82.5293 14.0431C82.0742 14.5229 81.8466 15.1687 81.8466 15.9807V20.1511H79.8905V11.5334ZM90.7174 18.5826C91.6524 18.5826 92.329 18.2689 92.7473 17.6415H94.8694C94.5496 18.4903 94.0144 19.1608 93.264 19.6529C92.5136 20.145 91.6647 20.391 90.7174 20.391C89.4011 20.391 88.3062 19.9604 87.4327 19.0993C86.5593 18.2381 86.1226 17.1494 86.1226 15.833C86.1226 14.5413 86.547 13.4649 87.3958 12.6037C88.2447 11.7303 89.3211 11.2935 90.6252 11.2935C91.8923 11.2935 92.938 11.7241 93.7622 12.5853C94.5865 13.4341 94.9986 14.4921 94.9986 15.7592C94.9986 16.1529 94.9863 16.4112 94.9617 16.5343H88.1524C88.2631 17.1494 88.5522 17.6476 89.0197 18.029C89.4995 18.3981 90.0654 18.5826 90.7174 18.5826ZM90.6252 13.0466C89.9855 13.0466 89.438 13.225 88.9828 13.5817C88.5399 13.9262 88.2754 14.3875 88.1893 14.9657H92.9318C92.8334 14.3752 92.5751 13.9077 92.1568 13.5633C91.7508 13.2188 91.2403 13.0466 90.6252 13.0466ZM104.709 14.0246H102.587C102.23 13.3357 101.449 12.9912 100.243 12.9912C99.6771 12.9912 99.228 13.0835 98.8959 13.268C98.576 13.4403 98.4161 13.6863 98.4161 14.0062C98.4161 14.2891 98.5453 14.5044 98.8036 14.652C99.0619 14.7874 99.4618 14.8796 100.003 14.9288L101.645 15.058C103.626 15.2179 104.616 16.0729 104.616 17.623C104.616 18.4227 104.26 19.087 103.546 19.616C102.845 20.1327 101.891 20.391 100.686 20.391C99.4556 20.391 98.4468 20.1327 97.6595 19.616C96.8845 19.0993 96.3985 18.4042 96.2017 17.5307H98.3423C98.6252 18.3058 99.4741 18.6933 100.889 18.6933C101.418 18.6933 101.842 18.6072 102.162 18.435C102.494 18.2627 102.66 18.0228 102.66 17.7153C102.66 17.42 102.531 17.1986 102.273 17.051C102.014 16.9033 101.621 16.8049 101.092 16.7557L99.3387 16.5896C98.3669 16.4912 97.641 16.239 97.1613 15.833C96.6938 15.4271 96.46 14.8427 96.46 14.08C96.46 13.2803 96.8045 12.616 97.4934 12.087C98.1946 11.558 99.1235 11.2935 100.28 11.2935C101.51 11.2935 102.494 11.5457 103.232 12.0501C103.983 12.5422 104.475 13.2004 104.709 14.0246ZM114.161 14.0246H112.039C111.682 13.3357 110.901 12.9912 109.695 12.9912C109.129 12.9912 108.68 13.0835 108.348 13.268C108.028 13.4403 107.868 13.6863 107.868 14.0062C107.868 14.2891 107.998 14.5044 108.256 14.652C108.514 14.7874 108.914 14.8796 109.455 14.9288L111.098 15.058C113.078 15.2179 114.069 16.0729 114.069 17.623C114.069 18.4227 113.712 19.087 112.998 19.616C112.297 20.1327 111.344 20.391 110.138 20.391C108.908 20.391 107.899 20.1327 107.112 19.616C106.337 19.0993 105.851 18.4042 105.654 17.5307H107.795C108.078 18.3058 108.926 18.6933 110.341 18.6933C110.87 18.6933 111.295 18.6072 111.614 18.435C111.947 18.2627 112.113 18.0228 112.113 17.7153C112.113 17.42 111.983 17.1986 111.725 17.051C111.467 16.9033 111.073 16.8049 110.544 16.7557L108.791 16.5896C107.819 16.4912 107.093 16.239 106.614 15.833C106.146 15.4271 105.912 14.8427 105.912 14.08C105.912 13.2803 106.257 12.616 106.946 12.087C107.647 11.558 108.576 11.2935 109.732 11.2935C110.962 11.2935 111.947 11.5457 112.685 12.0501C113.435 12.5422 113.927 13.2004 114.161 14.0246ZM123.055 11.2935C124.334 11.2935 125.361 11.5949 126.136 12.1977C126.911 12.8005 127.299 13.6432 127.299 14.7258V20.1511H125.343V19.3576C124.691 20.0466 123.725 20.391 122.446 20.391C121.388 20.391 120.545 20.145 119.918 19.6529C119.302 19.1485 118.995 18.4288 118.995 17.4938C118.995 16.8172 119.186 16.2698 119.567 15.8515C119.961 15.4209 120.434 15.1257 120.988 14.9657C121.554 14.8058 122.2 14.7258 122.925 14.7258H125.343C125.343 14.1722 125.134 13.7663 124.715 13.5079C124.297 13.2373 123.75 13.1019 123.073 13.1019C121.904 13.1019 121.172 13.471 120.877 14.2091H118.792C119.038 13.2742 119.548 12.5545 120.324 12.0501C121.111 11.5457 122.021 11.2935 123.055 11.2935ZM125.343 16.7557V16.2944H122.907C121.603 16.2944 120.951 16.6942 120.951 17.4938C120.951 17.8875 121.111 18.1951 121.431 18.4165C121.751 18.6256 122.193 18.7302 122.759 18.7302C123.522 18.7302 124.143 18.558 124.623 18.2135C125.103 17.8568 125.343 17.3708 125.343 16.7557ZM131.514 23.9156H129.558V11.5334H131.514V12.3269C132.166 11.638 133.07 11.2935 134.227 11.2935C135.568 11.2935 136.632 11.7426 137.419 12.6406C138.219 13.5264 138.619 14.5905 138.619 15.833C138.619 17.0879 138.219 18.1643 137.419 19.0624C136.632 19.9481 135.568 20.391 134.227 20.391C133.07 20.391 132.166 20.0466 131.514 19.3576V23.9156ZM132.215 13.8216C131.699 14.2891 131.44 14.9596 131.44 15.833C131.44 16.7065 131.699 17.3831 132.215 17.8629C132.744 18.3427 133.372 18.5826 134.098 18.5826C134.848 18.5826 135.463 18.3181 135.943 17.7891C136.423 17.2478 136.663 16.5958 136.663 15.833C136.663 15.0826 136.423 14.4429 135.943 13.9139C135.463 13.3726 134.848 13.1019 134.098 13.1019C133.372 13.1019 132.744 13.3418 132.215 13.8216ZM142.48 23.9156H140.524V11.5334H142.48V12.3269C143.132 11.638 144.036 11.2935 145.193 11.2935C146.534 11.2935 147.598 11.7426 148.385 12.6406C149.185 13.5264 149.585 14.5905 149.585 15.833C149.585 17.0879 149.185 18.1643 148.385 19.0624C147.598 19.9481 146.534 20.391 145.193 20.391C144.036 20.391 143.132 20.0466 142.48 19.3576V23.9156ZM143.181 13.8216C142.665 14.2891 142.406 14.9596 142.406 15.833C142.406 16.7065 142.665 17.3831 143.181 17.8629C143.71 18.3427 144.338 18.5826 145.064 18.5826C145.814 18.5826 146.429 18.3181 146.909 17.7891C147.389 17.2478 147.629 16.5958 147.629 15.833C147.629 15.0826 147.389 14.4429 146.909 13.9139C146.429 13.3726 145.814 13.1019 145.064 13.1019C144.338 13.1019 143.71 13.3418 143.181 13.8216Z" fill="#272F2D"/>
<rect width="28.4489" height="28.4489" rx="6.20703" fill="#30D96E"/>
<path d="M7.00483 17.015L12.1256 14.6408L7.00483 12.2511V10.839L13.755 14.0046V15.2615L7.00483 18.4271V17.015ZM14.1453 17.015L19.2661 14.6408L14.1453 12.2511V10.839L20.8955 14.0046V15.2615L14.1453 18.4271V17.015Z" fill="#272F2D"/>
</svg>
