<svg width="54" height="54" viewBox="0 0 54 54" fill="none" xmlns="http://www.w3.org/2000/svg">
<path fill-rule="evenodd" clip-rule="evenodd" d="M25.8043 0.0644511C24.573 0.29002 23.5628 0.750455 22.3278 1.64924C20.4075 3.04661 18.6795 5.34836 17.292 8.35682C17.0223 8.9414 16.7859 9.43797 16.7663 9.46026C16.7468 9.48256 16.1754 9.35524 15.4966 9.17732C12.7958 8.46955 10.7404 8.18091 8.29959 8.16686C5.13637 8.14858 3.1486 8.76898 1.60282 10.257C-0.871141 12.6385 -0.41941 16.5934 2.87673 21.4113C3.91947 22.9354 5.11832 24.4028 6.53675 25.8913C7.08509 26.4668 7.53376 26.9669 7.53376 27.0028C7.53376 27.0385 7.08574 27.5423 6.53806 28.1222C2.77597 32.1068 0.658444 35.6163 0.125863 38.7494C-0.0258815 39.6423 -0.0351818 39.9573 0.0698466 40.6532C0.451997 43.1856 2.1098 44.8086 5.09513 45.5731C6.05636 45.8194 6.36805 45.8477 8.13548 45.8499C10.6813 45.853 12.7005 45.5773 15.4966 44.8444C16.1754 44.6665 16.749 44.5392 16.7712 44.5615C16.7933 44.5838 17.0279 45.0775 17.2925 45.6586C18.6454 48.6302 20.4466 51.0281 22.3528 52.3955C24.0498 53.6128 25.1731 54 27.0078 54C28.8425 54 29.9657 53.6128 31.6627 52.3955C33.569 51.0281 35.3701 48.6302 36.723 45.6586C36.9877 45.0775 37.2215 44.5845 37.2428 44.563C37.2641 44.5415 37.8622 44.6725 38.5722 44.8542C41.4865 45.5995 43.3687 45.8578 45.8801 45.8565C47.8441 45.8555 48.841 45.7011 50.1855 45.1893C52.904 44.1545 54.3588 41.7015 53.9214 38.8901C53.4398 35.7944 51.1708 32.0048 47.4788 28.1305C46.9305 27.555 46.4818 27.0494 46.4818 27.0072C46.4818 26.9648 46.8633 26.5312 47.3297 26.0435C51.1933 22.0032 53.428 18.3039 53.9214 15.1317C54.3857 12.1468 52.7681 9.66354 49.7197 8.68181C48.4063 8.25878 47.6266 8.15883 45.716 8.16834C43.2784 8.18038 41.2238 8.4685 38.519 9.17732C37.8401 9.35524 37.2687 9.48256 37.2492 9.46026C37.2297 9.43797 36.9932 8.9414 36.7236 8.35682C35.3361 5.34836 33.608 3.04661 31.6878 1.64924C30.6844 0.919182 30.0888 0.607401 29.0841 0.286639C28.2888 0.0326496 26.6014 -0.0816667 25.8043 0.0644511ZM28.8599 4.04122C30.4414 4.79168 32.0781 6.68677 33.3934 9.29058C33.7228 9.94267 34.0249 10.6019 34.0647 10.7557C34.1301 11.0083 34.0966 11.0479 33.7178 11.1675C32.9437 11.4118 29.9652 12.6367 28.4796 13.3217L27.0078 14.0003L25.536 13.3217C24.0504 12.6367 21.0718 11.4118 20.2978 11.1675C19.7797 11.0041 19.7878 10.9552 20.6034 9.32027C22.0845 6.35132 23.9042 4.41502 25.8446 3.74328C26.7298 3.43689 27.8116 3.54381 28.8599 4.04122ZM10.4877 11.5263C11.8837 11.6173 15.8228 12.3996 16.101 12.6412C16.1497 12.6833 16.0651 13.1406 15.9132 13.6572C15.3514 15.5673 14.7883 18.4156 14.5264 20.6717L14.3976 21.7811L13.5775 22.415C13.1265 22.7636 12.2099 23.5084 11.5406 24.0699L10.3236 25.091L9.95652 24.7567C8.62288 23.5422 6.22889 20.5638 5.33812 19.0111C2.97837 14.8975 3.38185 12.3901 6.51761 11.6812C7.18016 11.5314 8.65701 11.4009 9.22953 11.4417C9.47022 11.4588 10.0364 11.4968 10.4877 11.5263ZM47.2808 11.6499C48.2572 11.8607 49.2597 12.3605 49.6193 12.8158C51.1374 14.7379 49.5299 18.7712 45.4356 23.313C44.9379 23.8651 44.3419 24.4911 44.1113 24.7041L43.692 25.0914L42.475 24.0701C41.8056 23.5085 40.8892 22.7636 40.4386 22.415L39.6191 21.7811L39.4867 20.6717C39.206 18.3201 38.6763 15.6413 38.0996 13.657C37.9495 13.1402 37.8663 12.6833 37.9148 12.6417C37.9948 12.5731 39.3714 12.2288 40.8934 11.8966C42.8199 11.4761 45.9211 11.3564 47.2808 11.6499ZM20.9588 14.3143C23.3115 15.2714 23.9422 15.5433 23.9407 15.6004C23.94 15.6294 23.5859 15.8434 23.1538 16.0758C22.0268 16.6822 19.3202 18.3228 18.3917 18.9628C17.9557 19.2632 17.5991 19.4497 17.5991 19.3772C17.5996 18.9154 18.3642 15.4009 18.7044 14.2965C18.9696 13.4357 18.7956 13.4343 20.9588 14.3143ZM35.3134 14.3061C35.7487 15.7236 36.4933 19.2595 36.3796 19.3691C36.3516 19.3962 35.7208 19.024 34.9778 18.5421C33.7522 17.7474 30.4123 15.7675 30.1315 15.6695C30.0683 15.6474 30.041 15.607 30.0711 15.5797C30.2424 15.4244 34.701 13.6223 34.9624 13.6028C35.035 13.5974 35.193 13.9138 35.3134 14.3061ZM28.8864 18.0679C31.6439 19.5934 35.0871 21.77 36.5779 22.9299L36.9034 23.1831L36.9409 26.3384C36.9616 28.0739 36.9383 29.8224 36.889 30.2241L36.7995 30.9545L35.3772 31.9442C34.595 32.4887 33.118 33.4481 32.0951 34.0764C30.2954 35.1819 27.1705 36.9422 27.0078 36.9422C26.8451 36.9422 23.7202 35.1819 21.9205 34.0764C20.8975 33.4481 19.4206 32.4888 18.6383 31.9447L17.2161 30.9552L17.1448 30.3829C17.0505 29.6256 17.0346 24.7223 17.1233 23.814L17.1932 23.1001L18.1345 22.4318C19.5182 21.4496 20.6574 20.7008 22.194 19.7636C23.8851 18.732 26.7989 17.1008 26.9718 17.0886C27.0423 17.0835 27.9039 17.5243 28.8864 18.0679ZM25.4214 21.6085C24.4579 21.8758 23.6856 22.322 22.9214 23.0528C20.6232 25.2504 20.6188 28.7532 22.9112 30.9669C24.0458 32.0627 25.4112 32.6105 27.0078 32.6105C28.616 32.6105 29.94 32.0758 31.0962 30.9591C32.2473 29.8477 32.8062 28.5633 32.8062 27.0303C32.8062 24.462 31.017 22.2131 28.469 21.5786C27.6046 21.3634 26.2569 21.3766 25.4214 21.6085ZM14.1909 27.0135L14.1877 28.6009L13.7873 28.2644C13.5671 28.0792 13.1477 27.7215 12.8554 27.4693L12.3239 27.0109L12.8554 26.5535C13.1477 26.302 13.5592 25.9467 13.7698 25.7642C13.9804 25.5816 14.162 25.4308 14.1733 25.4292C14.1847 25.4275 14.1926 26.1404 14.1909 27.0135ZM41.1736 26.5641L41.7184 27.0341L41.4322 27.2602C41.2747 27.3846 40.8512 27.7353 40.491 28.0397L39.836 28.5932L39.8332 27.008L39.8302 25.4229L40.2294 25.7585C40.449 25.9431 40.8738 26.3055 41.1736 26.5641ZM12.5689 30.7907C13.2623 31.3557 13.9574 31.9152 14.1138 32.0338C14.3679 32.2269 14.4115 32.3659 14.5272 33.3545C14.7937 35.6309 15.2892 38.1633 15.8572 40.1517C16.0377 40.7837 16.1614 41.3241 16.132 41.3525C16.01 41.4702 13.7396 42.0247 12.5156 42.2356C10.6508 42.557 7.9472 42.6275 6.80282 42.3848C5.76917 42.1656 4.76615 41.6742 4.39625 41.206C2.98975 39.4251 4.22482 35.8858 7.71537 31.6949C8.18099 31.1358 8.95164 30.2807 9.42799 29.7948L10.2941 28.9112L10.8011 29.3374C11.08 29.5717 11.8756 30.2258 12.5689 30.7907ZM46.2715 31.6635C48.3586 34.1803 49.5866 36.3066 50.0407 38.1902C50.3355 39.4125 50.1849 40.4897 49.6193 41.206C49.2488 41.675 48.2459 42.1657 47.2081 42.3858C45.9597 42.6507 43.2371 42.5578 41.2304 42.1818C39.8467 41.9226 37.9994 41.4643 37.8823 41.3511C37.8536 41.3235 37.9779 40.7837 38.1584 40.1517C38.7276 38.1585 39.2277 35.603 39.4892 33.3501L39.618 32.2407L40.4381 31.6068C40.889 31.2581 41.8056 30.5102 42.475 29.9448L43.692 28.9166L44.5672 29.7902C45.0486 30.2707 45.8155 31.1137 46.2715 31.6635ZM19.015 35.472C20.2105 36.2471 23.604 38.2545 23.8841 38.3523C23.9473 38.3744 23.9745 38.4141 23.9444 38.4406C23.8478 38.5257 21.5233 39.4983 20.205 40.0053C18.9704 40.4801 18.925 40.4893 18.8617 40.2779C18.4372 38.8565 17.599 35.1543 17.599 34.7008C17.599 34.5602 17.659 34.5928 19.015 35.472ZM36.4166 34.7228C36.4166 35.1327 35.5887 38.7679 35.1492 40.2875C35.0851 40.5095 35.0352 40.4969 33.425 39.853C31.1374 38.9381 30.0738 38.4837 30.0751 38.4214C30.0757 38.3923 30.4301 38.1784 30.8626 37.9459C31.9113 37.3824 35.0199 35.499 35.7054 35.0119C36.2781 34.6049 36.4166 34.5487 36.4166 34.7228ZM27.7968 40.3873C28.9698 40.9578 31.4973 42.0271 32.8883 42.5415C33.5653 42.7919 34.1191 43.0328 34.1191 43.0769C34.1191 43.1209 33.9437 43.5535 33.7294 44.038C32.6516 46.4748 31.0208 48.639 29.522 49.622C26.6269 51.5205 23.6713 50.1103 21.0674 45.5882C20.6728 44.903 19.8965 43.2379 19.8965 43.0769C19.8965 43.0328 20.4504 42.792 21.1273 42.542C22.5016 42.0341 25.2917 40.8483 26.2966 40.3451C26.6577 40.1642 26.9666 40.0141 26.9832 40.0113C26.9997 40.0085 27.3659 40.1777 27.7968 40.3873Z" fill="#3290FF"/>
</svg>
